<mxfile host="app.diagrams.net" modified="2020-05-19T05:21:00.892Z" agent="5.0 (Windows NT 10.0; Win64; x64) AppleWebKit/537.36 (KHTML, like Gecko) Chrome/81.0.4044.138 Safari/537.36" etag="LjSEByH3MVrjYjN0_cbR" version="13.1.2" type="github">
  <diagram id="dmLgBLUqlHNM_bfMmvdy" name="Page-1">
    <mxGraphModel dx="1038" dy="548" grid="1" gridSize="10" guides="1" tooltips="1" connect="1" arrows="1" fold="1" page="1" pageScale="1" pageWidth="827" pageHeight="1169" math="0" shadow="0">
      <root>
        <mxCell id="0" />
        <mxCell id="1" parent="0" />
        <mxCell id="7ubEmNlEojUCyiRUeKrn-3" value="" style="strokeWidth=1;html=1;shape=mxgraph.flowchart.database;whiteSpace=wrap;" vertex="1" parent="1">
          <mxGeometry x="543.75" y="100" width="112.5" height="129" as="geometry" />
        </mxCell>
        <mxCell id="EFgIRNmMkR1W0rw9u6N1-2" value="" style="rounded=1;whiteSpace=wrap;html=1;" parent="1" vertex="1">
          <mxGeometry x="280" y="250" width="410" height="240" as="geometry" />
        </mxCell>
        <mxCell id="EFgIRNmMkR1W0rw9u6N1-3" value="&lt;font style=&quot;font-size: 18px&quot;&gt;Vehicle Model&lt;/font&gt;" style="rounded=1;whiteSpace=wrap;html=1;" parent="1" vertex="1">
          <mxGeometry x="310" y="400" width="120" height="60" as="geometry" />
        </mxCell>
        <mxCell id="EFgIRNmMkR1W0rw9u6N1-4" value="&lt;font style=&quot;font-size: 18px&quot;&gt;Road Model&lt;/font&gt;" style="rounded=1;whiteSpace=wrap;html=1;" parent="1" vertex="1">
          <mxGeometry x="540" y="290" width="120" height="60" as="geometry" />
        </mxCell>
        <mxCell id="EFgIRNmMkR1W0rw9u6N1-5" value="&lt;font style=&quot;font-size: 18px&quot;&gt;EcoTrec Engine&lt;/font&gt;" style="rounded=1;whiteSpace=wrap;html=1;" parent="1" vertex="1">
          <mxGeometry x="540" y="400" width="120" height="60" as="geometry" />
        </mxCell>
        <mxCell id="EFgIRNmMkR1W0rw9u6N1-6" value="&lt;font style=&quot;font-size: 18px&quot;&gt;Traffic Model&lt;/font&gt;" style="rounded=1;whiteSpace=wrap;html=1;" parent="1" vertex="1">
          <mxGeometry x="310" y="290" width="120" height="60" as="geometry" />
        </mxCell>
        <mxCell id="EFgIRNmMkR1W0rw9u6N1-11" value="" style="endArrow=classic;html=1;entryX=0.5;entryY=1;entryDx=0;entryDy=0;" parent="1" source="EFgIRNmMkR1W0rw9u6N1-3" target="EFgIRNmMkR1W0rw9u6N1-6" edge="1">
          <mxGeometry width="50" height="50" relative="1" as="geometry">
            <mxPoint x="210" y="600" as="sourcePoint" />
            <mxPoint x="260" y="550" as="targetPoint" />
          </mxGeometry>
        </mxCell>
        <mxCell id="EFgIRNmMkR1W0rw9u6N1-13" value="" style="endArrow=classic;html=1;entryX=0.5;entryY=0;entryDx=0;entryDy=0;exitX=0.5;exitY=1;exitDx=0;exitDy=0;rounded=0;shape=flexArrow;startSize=6;fillColor=#dae8fc;strokeColor=#6c8ebf;" parent="1" source="EFgIRNmMkR1W0rw9u6N1-4" target="EFgIRNmMkR1W0rw9u6N1-5" edge="1">
          <mxGeometry width="50" height="50" relative="1" as="geometry">
            <mxPoint x="330" y="620" as="sourcePoint" />
            <mxPoint x="380" y="570" as="targetPoint" />
          </mxGeometry>
        </mxCell>
        <mxCell id="EFgIRNmMkR1W0rw9u6N1-14" value="" style="endArrow=classic;html=1;entryX=0.5;entryY=0;entryDx=0;entryDy=0;exitX=1;exitY=0.5;exitDx=0;exitDy=0;fillColor=#dae8fc;strokeColor=#6c8ebf;rounded=0;shape=flexArrow;startSize=6;" parent="1" source="EFgIRNmMkR1W0rw9u6N1-6" target="EFgIRNmMkR1W0rw9u6N1-5" edge="1">
          <mxGeometry width="50" height="50" relative="1" as="geometry">
            <mxPoint x="294" y="600" as="sourcePoint" />
            <mxPoint x="344" y="550" as="targetPoint" />
            <Array as="points">
              <mxPoint x="470" y="320" />
              <mxPoint x="470" y="360" />
              <mxPoint x="530" y="360" />
              <mxPoint x="600" y="360" />
            </Array>
          </mxGeometry>
        </mxCell>
        <mxCell id="EFgIRNmMkR1W0rw9u6N1-16" value="" style="endArrow=classic;html=1;entryX=1;entryY=0.5;entryDx=0;entryDy=0;rounded=0;shape=flexArrow;startSize=6;fillColor=#dae8fc;strokeColor=#6c8ebf;" parent="1" source="EFgIRNmMkR1W0rw9u6N1-5" target="EFgIRNmMkR1W0rw9u6N1-3" edge="1">
          <mxGeometry width="50" height="50" relative="1" as="geometry">
            <mxPoint x="360" y="560" as="sourcePoint" />
            <mxPoint x="410" y="510" as="targetPoint" />
          </mxGeometry>
        </mxCell>
        <mxCell id="EFgIRNmMkR1W0rw9u6N1-17" value="" style="endArrow=classic;html=1;entryX=0.5;entryY=1;entryDx=0;entryDy=0;rounded=0;shape=flexArrow;startSize=6;fillColor=#dae8fc;strokeColor=#6c8ebf;" parent="1" edge="1">
          <mxGeometry width="50" height="50" relative="1" as="geometry">
            <mxPoint x="369.5" y="400" as="sourcePoint" />
            <mxPoint x="369.5" y="350" as="targetPoint" />
          </mxGeometry>
        </mxCell>
        <mxCell id="EFgIRNmMkR1W0rw9u6N1-18" value="&lt;font style=&quot;font-size: 24px&quot;&gt;Vehicle&lt;/font&gt;" style="text;html=1;strokeColor=none;fillColor=none;align=center;verticalAlign=middle;whiteSpace=wrap;rounded=0;fontSize=24;" parent="1" vertex="1">
          <mxGeometry x="465" y="270" width="40" height="20" as="geometry" />
        </mxCell>
        <mxCell id="EFgIRNmMkR1W0rw9u6N1-21" value="&lt;font style=&quot;font-size: 18px&quot;&gt;Vehicle&lt;/font&gt;" style="rounded=1;whiteSpace=wrap;html=1;" parent="1" vertex="1">
          <mxGeometry x="124" y="450" width="120" height="60" as="geometry" />
        </mxCell>
        <mxCell id="EFgIRNmMkR1W0rw9u6N1-22" value="&lt;font style=&quot;font-size: 18px&quot;&gt;Vehicle&lt;/font&gt;" style="rounded=1;whiteSpace=wrap;html=1;" parent="1" vertex="1">
          <mxGeometry x="120" y="290" width="120" height="60" as="geometry" />
        </mxCell>
        <mxCell id="EFgIRNmMkR1W0rw9u6N1-23" value="" style="endArrow=classic;html=1;strokeColor=#6c8ebf;entryX=0;entryY=0.5;entryDx=0;entryDy=0;exitX=1;exitY=0.5;exitDx=0;exitDy=0;rounded=0;shape=flexArrow;fillColor=#dae8fc;" parent="1" source="EFgIRNmMkR1W0rw9u6N1-21" target="EFgIRNmMkR1W0rw9u6N1-6" edge="1">
          <mxGeometry width="50" height="50" relative="1" as="geometry">
            <mxPoint x="200" y="480" as="sourcePoint" />
            <mxPoint x="250" y="430" as="targetPoint" />
            <Array as="points">
              <mxPoint x="260" y="480" />
              <mxPoint x="260" y="400" />
              <mxPoint x="260" y="320" />
            </Array>
          </mxGeometry>
        </mxCell>
        <mxCell id="EFgIRNmMkR1W0rw9u6N1-24" value="" style="endArrow=classic;html=1;strokeColor=#6c8ebf;entryX=0;entryY=0.5;entryDx=0;entryDy=0;exitX=1;exitY=0.5;exitDx=0;exitDy=0;rounded=0;shape=flexArrow;fillColor=#dae8fc;" parent="1" source="EFgIRNmMkR1W0rw9u6N1-22" target="EFgIRNmMkR1W0rw9u6N1-6" edge="1">
          <mxGeometry width="50" height="50" relative="1" as="geometry">
            <mxPoint x="200" y="480" as="sourcePoint" />
            <mxPoint x="250" y="430" as="targetPoint" />
          </mxGeometry>
        </mxCell>
        <mxCell id="EFgIRNmMkR1W0rw9u6N1-26" value="&lt;font style=&quot;font-size: 18px&quot;&gt;Road&lt;br&gt;Model&lt;/font&gt;" style="rounded=1;whiteSpace=wrap;html=1;" parent="1" vertex="1">
          <mxGeometry x="557.5" y="150" width="85" height="60" as="geometry" />
        </mxCell>
        <mxCell id="EFgIRNmMkR1W0rw9u6N1-27" value="&lt;font style=&quot;font-size: 18px&quot;&gt;Server&lt;/font&gt;" style="text;html=1;strokeColor=none;fillColor=none;align=center;verticalAlign=middle;whiteSpace=wrap;rounded=0;" parent="1" vertex="1">
          <mxGeometry x="580" y="110" width="40" height="20" as="geometry" />
        </mxCell>
        <mxCell id="EFgIRNmMkR1W0rw9u6N1-28" value="&lt;font style=&quot;font-size: 18px&quot;&gt;Road surface data&lt;/font&gt;" style="text;html=1;strokeColor=none;fillColor=none;align=center;verticalAlign=middle;whiteSpace=wrap;rounded=0;" parent="1" vertex="1">
          <mxGeometry x="244" y="169" width="110" height="20" as="geometry" />
        </mxCell>
        <mxCell id="EFgIRNmMkR1W0rw9u6N1-29" value="" style="endArrow=classic;html=1;strokeColor=#000000;entryX=0;entryY=0.5;entryDx=0;entryDy=0;exitX=1;exitY=0.5;exitDx=0;exitDy=0;" parent="1" source="EFgIRNmMkR1W0rw9u6N1-28" target="EFgIRNmMkR1W0rw9u6N1-26" edge="1">
          <mxGeometry width="50" height="50" relative="1" as="geometry">
            <mxPoint x="210" y="250" as="sourcePoint" />
            <mxPoint x="450" y="170" as="targetPoint" />
          </mxGeometry>
        </mxCell>
        <mxCell id="EFgIRNmMkR1W0rw9u6N1-32" value="" style="endArrow=classic;html=1;strokeColor=#23445d;entryX=0.5;entryY=1;entryDx=0;entryDy=0;exitX=0.5;exitY=0;exitDx=0;exitDy=0;rounded=0;shape=flexArrow;fillColor=#bac8d3;" parent="1" source="7ubEmNlEojUCyiRUeKrn-11" target="EFgIRNmMkR1W0rw9u6N1-3" edge="1">
          <mxGeometry width="50" height="50" relative="1" as="geometry">
            <mxPoint x="370" y="510" as="sourcePoint" />
            <mxPoint x="310" y="550" as="targetPoint" />
          </mxGeometry>
        </mxCell>
        <mxCell id="EFgIRNmMkR1W0rw9u6N1-35" value="" style="endArrow=classic;html=1;strokeColor=#23445d;entryX=1;entryY=0.5;entryDx=0;entryDy=0;rounded=0;shape=flexArrow;fillColor=#bac8d3;" parent="1" source="7ubEmNlEojUCyiRUeKrn-6" target="EFgIRNmMkR1W0rw9u6N1-4" edge="1">
          <mxGeometry width="50" height="50" relative="1" as="geometry">
            <mxPoint x="709" y="505" as="sourcePoint" />
            <mxPoint x="560" y="580" as="targetPoint" />
            <Array as="points">
              <mxPoint x="710" y="320" />
            </Array>
          </mxGeometry>
        </mxCell>
        <mxCell id="EFgIRNmMkR1W0rw9u6N1-36" value="" style="endArrow=classic;startArrow=classic;html=1;strokeColor=#6c8ebf;entryX=0.5;entryY=1;entryDx=0;entryDy=0;exitX=0.5;exitY=0;exitDx=0;exitDy=0;rounded=0;shape=flexArrow;fillColor=#dae8fc;" parent="1" source="EFgIRNmMkR1W0rw9u6N1-4" target="EFgIRNmMkR1W0rw9u6N1-26" edge="1">
          <mxGeometry width="50" height="50" relative="1" as="geometry">
            <mxPoint x="80" y="240" as="sourcePoint" />
            <mxPoint x="130" y="190" as="targetPoint" />
          </mxGeometry>
        </mxCell>
        <mxCell id="EFgIRNmMkR1W0rw9u6N1-38" value="" style="endArrow=classic;html=1;strokeColor=#23445d;exitX=1;exitY=0.5;exitDx=0;exitDy=0;rounded=0;shape=flexArrow;fillColor=#bac8d3;" parent="1" edge="1" target="EFgIRNmMkR1W0rw9u6N1-26">
          <mxGeometry width="50" height="50" relative="1" as="geometry">
            <mxPoint x="354" y="179.29" as="sourcePoint" />
            <mxPoint x="557.5" y="180.28999999999988" as="targetPoint" />
          </mxGeometry>
        </mxCell>
        <mxCell id="7ubEmNlEojUCyiRUeKrn-6" value="&lt;font style=&quot;font-size: 18px&quot;&gt;Road surface data&lt;/font&gt;" style="text;html=1;strokeColor=none;fillColor=none;align=center;verticalAlign=middle;whiteSpace=wrap;rounded=0;" vertex="1" parent="1">
          <mxGeometry x="656.25" y="520" width="110" height="50" as="geometry" />
        </mxCell>
        <mxCell id="7ubEmNlEojUCyiRUeKrn-11" value="&lt;font style=&quot;font-size: 18px&quot;&gt;Vehicle location + movement data&lt;/font&gt;" style="text;html=1;strokeColor=none;fillColor=none;align=center;verticalAlign=middle;whiteSpace=wrap;rounded=0;" vertex="1" parent="1">
          <mxGeometry x="295" y="520" width="150" height="60" as="geometry" />
        </mxCell>
      </root>
    </mxGraphModel>
  </diagram>
</mxfile>
